# Blender v2.78 (sub 0) OBJ File: ''
# www.blender.org
mtllib LBcube.mtl
o Cube_Cube.001
v -0.982518 -1.061017 0.573050
v -0.982518 0.938983 0.573050
v -0.982518 -1.061017 -1.426950
v -0.982518 0.938983 -1.426950
v 1.017482 -1.061017 0.573050
v 1.017482 0.938983 0.573050
v 1.017482 -1.061017 -1.426950
v 1.017482 0.938983 -1.426950
vt 0.3334 0.5000
vt 0.3334 0.2500
vt 0.6666 0.2500
vt 0.6666 0.5000
vt 0.9999 0.5000
vt 0.9999 0.7499
vt 0.6666 0.7500
vt 0.6666 0.9999
vt 0.3334 0.9999
vt 0.3334 0.7499
vt 0.0001 0.7499
vt 0.0001 0.5000
vt 0.6666 0.0001
vt 0.3334 0.0001
vn -1.0000 0.0000 0.0000
vn 0.0000 0.0000 -1.0000
vn 1.0000 0.0000 0.0000
vn 0.0000 0.0000 1.0000
vn 0.0000 -1.0000 0.0000
vn 0.0000 1.0000 0.0000
usemtl None
s off
f 1/1/1 2/2/1 4/3/1 3/4/1
f 3/4/2 4/5/2 8/6/2 7/7/2
f 7/7/3 8/8/3 6/9/3 5/10/3
f 5/10/4 6/11/4 2/12/4 1/1/4
f 3/4/5 7/7/5 5/10/5 1/1/5
f 8/13/6 4/3/6 2/2/6 6/14/6
